<svg xmlns="http://www.w3.org/2000/svg"
 xmlns:xlink="http://www.w3.org/1999/xlink"
 width="122px" height="42px"  viewBox="0 0 122 42">
<path fill-rule="evenodd"  fill="#ffffff"
 d="M52.759644,28.023438 C52.425537,28.238281 52.268066,29.876465 51.322998,29.86914 C49.64685,29.857422 51.073242,26.377441 51.49231,24.98584 C51.737183,24.171875 52.549072,21.604492 54.02124,17.213379 C56.564453,16.817871 59.035156,16.178223 59.704224,15.533691 C61.38037,13.917969 62.33716,11.379883 62.33716,11.379883 C62.33716,11.379883 60.04785,12.115234 55.352783,12.997559 C55.352783,12.997559 58.02722,4.2543945 58.02722,4.2543945 C58.02722,4.2543945 57.80957,3.875 57.30896,4.119629 C56.398926,4.5634766 55.031494,5.291504 54.550903,5.869629 C53.9657,6.574707 52.815674,9.87793 51.625,13.639648 C51.524048,13.655762 51.425293,13.671387 51.322998,13.6875 C49.78662,13.92627 48.352783,14.134277 46.981445,14.306641 C46.981445,14.306641 47.368774,13.556641 47.368774,13.556641 C47.89563,12.960449 49.402954,10.273926 50.232178,8.828125 C51.82849,6.04541 51.364136,4.1132812 50.845093,3.3989258 C50.20227,2.5151367 48.4469,2.3535156 47.362427,3.020996 C46.68042,3.440918 46.22705,4.2368164 45.77832,5.6567383 C44.91455,8.391602 43.29834,13.556641 43.29834,13.556641 C43.29834,13.556641 43.093628,14.112793 42.87915,14.723633 C39.171143,14.994141 35.66736,14.921875 31.449707,14.379883 C27.06836,13.816895 23.548218,12.995117 20.196167,14.610352 C19.44165,14.974121 18.825195,15.369141 18.333984,15.738281 C18.0625,13.11377 15.276123,12.027344 13.732178,11.841309 C11.309326,11.549805 8.9436035,12.139648 6.4594727,14.573242 C5.515625,15.497559 3.536621,17.677734 2.5788574,21.103027 C1.4746094,25.050781 2.0283203,27.899902 3.5755615,29.720703 C5.5601807,32.05664 9.620239,32.288086 12.126343,30.64746 C13.254395,29.908203 14.758789,28.191406 15.524292,24.925781 C15.824951,24.972656 16.260498,24.963867 16.61438,24.93164 C18.200562,24.787598 18.947021,23.544922 19.050415,23.439941 C18.79419,24.399414 18.460693,25.42041 17.814941,27.316895 C17.415161,28.490723 17.187744,29.70996 17.901978,30.611328 C18.580322,31.468262 19.502686,31.463379 20.296143,31.48584 C22.171997,31.53955 24.483154,29.208496 24.483154,29.208496 C24.483154,29.208496 24.707031,31.350098 27.864136,31.48584 C30.348633,31.592773 31.595947,29.69336 31.595947,29.69336 C31.595947,29.69336 31.64856,31.34082 33.810547,31.48584 C35.90454,31.626465 37.613647,29.339355 38.764404,27.13916 C38.764404,27.13916 36.607788,33.57666 36.607788,33.57666 C36.607788,33.57666 35.612427,36.765625 36.547607,38.51758 C37.295654,39.91992 39.286255,40.13623 40.230347,39.9375 C41.220947,39.729492 42.713013,39.268066 44.256104,36.46338 C46.090454,33.128906 46.442627,25.212402 46.47107,23.671387 C46.524292,20.760254 46.36792,20.269531 46.06787,17.612305 C47.124268,17.611816 48.294067,17.610352 49.616943,17.610352 C49.864502,17.610352 50.129272,17.603516 50.40503,17.591797 C49.140015,21.773438 48.041504,25.625977 47.795044,26.350586 C46.11902,31.274902 49.87683,31.687012 50.428833,31.69043 C54.19629,31.715332 55.15393,29.176758 55.15393,29.176758 C55.15393,29.176758 55.592773,28.266602 55.508667,28.023438 C55.269287,27.330566 53.478027,27.562012 52.759644,28.023438 ZM49.20105,5.5566406 C49.46167,4.7373047 50.087036,4.034668 50.36621,4.7836914 C50.645386,5.532715 50.046753,8.12793 48.450684,10.552734 C47.87793,11.422852 46.839844,13.201172 46.620605,13.529297 C47.157593,11.963379 48.601807,7.4370117 49.20105,5.5566406 ZM14.798828,23.652832 C14.559204,23.652832 13.421875,23.326172 13.182373,21.941406 C12.985474,20.80371 14.070801,20.778809 14.439575,21.152832 C15.331787,22.057129 14.798828,23.652832 14.798828,23.652832 ZM31.685669,26.365723 C31.286377,27.703613 30.521362,28.6875 29.959473,29.041504 C29.064697,29.605957 27.545288,29.523438 27.425537,27.864746 C27.370361,27.100098 27.634277,25.730957 28.552002,23.697266 C29.440308,21.729004 30.3573,20.706055 31.336304,20.83545 C32.693237,21.013672 32.443848,22.476074 32.443848,22.476074 C32.537598,23.188477 32.181396,24.703125 31.685669,26.365723 ZM35.03772,29.220215 C33.95813,29.230957 34.602173,27.157227 34.80542,26.557617 C35.145996,25.552734 37.072998,19.550781 37.072998,19.550781 C37.072998,19.550781 34.87732,19.308594 34.199585,19.783203 C33.88513,20.004395 33.241943,20.978027 33.241943,20.978027 C33.241943,20.978027 33.25183,19.640625 31.575806,19.550781 C29.899658,19.46045 28.536743,20.13916 27.22583,21.370605 C24.073364,24.332031 24.143555,28.020996 24.143555,28.020996 C24.143555,28.020996 22.231812,30.07666 21.134521,28.970215 C20.662354,28.494629 21.576172,26.131836 21.972412,24.92041 C22.590942,23.029297 23.64856,19.550781 23.64856,19.550781 C23.64856,19.550781 21.212524,19.413086 20.535889,19.783203 C19.434326,20.38623 18.703613,22.532227 17.67102,23.388672 C16.90686,24.02246 15.839722,23.885254 15.684692,23.765625 C15.684692,23.765625 16.13562,22.442383 15.576782,21.171875 C14.937256,19.717773 13.386719,19.925781 12.823242,20.28711 C12.104858,20.749023 11.947144,21.716309 12.244751,22.691406 C12.543945,23.671875 13.668701,24.621094 14.439575,24.787598 C14.240967,25.720703 13.732178,26.84082 12.774536,27.995117 C11.156372,29.943848 8.879883,29.797852 7.536743,27.888184 C6.494385,26.405273 6.758667,22.529785 8.355225,19.247559 C9.951416,15.964844 11.496338,14.893555 13.22998,14.508301 C15.284302,14.050781 17.170654,15.461426 16.68628,17.8042 C16.68628,17.8042 16.605469,18.13916 16.605469,18.13916 C16.605469,18.13916 16.556274,18.353027 16.651855,18.44873 C16.934448,18.732422 17.746704,18.989746 18.999023,17.610352 C20.899292,15.517578 25.813843,16.05127 32.40747,16.918457 C36.22351,17.419434 38.282593,17.561035 41.96057,17.599121 C41.96057,17.599121 39.787476,24.085938 39.787476,24.085938 C38.70862,26.442383 37.023926,29.199707 35.03772,29.220215 ZM43.636597,33.279297 C42.453735,36.148926 41.47522,36.821777 40.744263,37.10547 C40.06665,37.36963 39.74878,37.166504 39.580444,36.70996 C39.360962,36.114258 39.7666,34.75049 39.7666,34.75049 C39.7666,34.75049 45.098633,18.398438 45.098633,18.398438 C45.907593,23.865723 44.7948,30.469238 43.636597,33.279297 ZM117.367065,15.562012 C119.04321,13.946777 120.0,11.282715 120.0,11.282715 C120.0,11.282715 117.97864,12.3671875 111.1084,13.48291 C111.1084,13.48291 111.486694,12.943359 111.486694,12.943359 C112.01355,12.347656 113.54736,9.674805 114.349976,8.21582 C116.098145,5.036621 115.482056,3.5 114.96289,2.7861328 C114.32019,1.9018555 112.56482,1.7402344 111.48047,2.4082031 C110.79822,2.8276367 110.34497,3.6235352 109.89612,5.043457 C109.03235,7.7783203 107.41614,12.943359 107.41614,12.943359 C107.41614,12.943359 107.22034,13.476074 107.010864,14.071289 C101.12512,14.804199 96.366455,14.830566 90.30969,14.051758 C85.928345,13.48877 82.64783,12.897949 79.295654,14.513672 C78.65662,14.821777 78.11865,15.152344 77.66943,15.470215 C77.58826,13.961914 76.62891,11.878906 72.5105,11.689941 C70.40466,11.592773 67.53235,12.568359 65.26758,14.691406 C64.30298,15.595703 62.344604,17.795898 61.386963,21.220703 C60.282837,25.168945 60.836548,28.018066 62.38379,29.839355 C64.368286,32.175293 67.612305,31.777832 69.0,30.89795 C70.145996,30.170898 70.67578,29.282227 70.915405,28.8208 C71.394165,29.74414 71.91272,30.341797 72.57837,30.871582 C73.73767,31.794434 76.60852,32.121094 78.76587,28.794434 C79.2771,28.006348 79.68457,26.681152 79.943115,25.651855 C79.98633,25.658691 80.44104,25.832031 80.920654,25.824707 C81.40051,25.816895 81.90588,25.627441 82.16553,25.430176 C81.64343,27.442383 81.80615,29.229492 82.89502,30.410156 C84.696045,32.362793 90.625854,32.47754 92.17297,25.194336 C93.117065,24.805664 93.77759,24.376953 94.458984,23.464355 C94.662964,23.569336 95.68616,24.219238 97.20117,23.487305 C97.40881,23.387207 96.546875,25.493652 95.90076,27.390137 C95.5011,28.563965 95.27368,29.783203 95.98804,30.685059 C96.666504,31.541504 97.58887,31.550293 98.382324,31.559082 C100.943726,31.58789 103.31787,27.234863 103.31787,27.234863 C103.31787,27.234863 102.00696,30.871582 102.00696,30.871582 C102.00696,30.871582 101.828735,31.545898 102.54712,31.545898 C103.74426,31.545898 104.07129,31.58789 104.72974,31.58789 C105.20862,31.58789 105.35901,30.871582 105.35901,30.871582 C105.35901,30.871582 106.54053,27.640625 106.54053,27.640625 C106.54053,27.640625 108.45618,27.625 108.45618,29.256348 C108.45618,30.641113 109.16565,31.524414 110.75366,31.563477 C111.78833,31.590332 113.48425,31.44873 114.30237,30.4292 C114.50952,30.171387 114.96863,29.277344 115.04053,29.075195 C115.20471,28.61377 115.65137,27.962402 114.7113,27.785156 C114.36719,27.720215 113.24487,27.87207 113.24487,27.87207 C113.24487,27.87207 112.52649,27.87207 112.21228,28.794434 C112.05432,29.25879 111.80823,29.94873 111.32922,29.94873 C110.36963,29.94873 111.32922,28.563965 109.65332,27.410156 C109.05444,26.998047 107.35559,26.97168 107.25879,26.94873 C107.81592,26.882812 108.65613,27.036621 110.27478,26.256348 C111.711426,25.563965 114.202515,24.640625 114.44202,20.94873 C114.59204,18.634277 110.27478,18.410645 108.598755,20.94873 C108.598755,20.94873 109.70581,17.452637 109.70581,17.452637 C112.270386,17.233887 116.44824,16.447266 117.367065,15.562012 ZM113.31897,4.9433594 C113.57971,4.125 114.204834,3.421875 114.48413,4.1708984 C114.763306,4.919922 114.16467,7.5151367 112.5686,9.939941 C111.99585,10.810059 110.95776,12.587891 110.7384,12.916504 C111.27551,11.350586 112.719604,6.8242188 113.31897,4.9433594 ZM71.87305,24.436523 C71.87305,24.436523 71.20459,21.985352 71.87305,20.74414 C72.47119,19.63379 73.29053,20.159668 73.30969,20.975098 C73.362305,23.186035 71.87305,24.436523 71.87305,24.436523 ZM90.808716,23.246582 C90.56946,23.25293 90.30835,23.256836 90.01929,23.256836 C88.822266,23.256836 87.492676,22.995605 87.38562,23.717773 C87.14612,25.333008 90.33948,25.498535 90.37854,25.498047 C90.36487,25.572266 90.32849,25.720703 90.31738,25.794922 C89.061646,30.1792 85.709595,30.1792 85.23059,28.333008 C84.96423,27.30664 85.18408,25.742188 85.948975,23.949219 C87.326904,20.717773 89.3009,20.487305 90.01929,21.179688 C90.690186,21.826172 90.85144,22.523438 90.808716,23.246582 ZM94.48169,22.199707 C94.514404,22.174805 93.40137,21.589355 93.950195,20.507812 C94.185425,20.044922 94.940796,20.041504 95.15222,20.623535 C95.31665,21.075195 94.97058,21.89209 94.48169,22.199707 ZM104.642334,22.27832 C104.642334,22.27832 102.93396,26.608887 101.23218,28.244629 C101.23218,28.244629 99.53711,30.070312 98.97522,29.02539 C98.66614,28.450684 99.776245,25.62207 100.172485,24.410645 C100.79126,22.519531 101.7345,19.624512 101.7345,19.624512 C101.7345,19.624512 99.11792,19.333496 98.39966,20.256348 C98.23901,20.463379 97.43762,21.690918 96.72363,22.333496 C95.99548,22.98877 95.40698,22.83496 95.206055,22.639648 C95.206055,22.639648 96.47131,21.224121 95.7262,20.036621 C95.17102,19.151855 94.13989,19.267578 93.62109,19.527344 C93.05823,19.809082 92.69812,20.420898 92.86267,21.31543 C92.9176,21.61377 93.17688,22.382812 93.64087,22.786621 C93.499756,22.939453 93.14209,23.075195 92.37085,23.127441 C92.282104,21.246094 91.52612,19.359863 88.50586,19.338379 C86.587524,19.325195 84.06909,20.856934 82.81995,23.577148 C82.69641,23.700195 82.3125,24.286621 81.16016,24.1792 C80.79712,24.145508 80.50159,24.08496 80.28845,23.762207 C80.48303,21.542969 80.28223,20.26709 79.28882,19.920898 C78.897705,19.78418 77.90881,19.869629 77.548706,20.748047 C77.109375,21.820312 77.63574,23.16455 78.4801,24.279785 C78.420654,25.2583 78.286865,26.324707 77.808105,27.1792 C75.4646,31.359375 71.87305,27.66748 72.11243,26.051758 C76.901245,19.359863 72.580444,18.171387 71.13147,18.943848 C68.19531,20.5083 69.98486,25.913086 70.16016,26.424316 C70.10608,27.536133 67.374756,29.309082 65.88721,27.436523 C64.71338,25.958984 65.43701,21.462402 67.033325,18.179688 C68.629395,14.896973 71.07361,13.773926 73.22888,13.821289 C74.930664,13.858887 75.6886,14.717285 75.8407,15.959473 C75.90979,16.523926 75.791504,17.460938 75.63806,18.14209 C75.572266,18.435059 76.18298,19.590332 78.33789,17.513184 C80.506226,15.423828 83.35718,15.25 90.30969,16.59082 C95.36133,17.563965 101.43579,17.551758 106.08728,17.524902 C105.43164,19.664062 104.642334,22.27832 104.642334,22.27832 ZM111.23242,23.256836 C109.69922,26.211426 106.94324,25.794922 106.94324,25.794922 C106.94324,25.794922 107.88025,23.025879 107.88025,23.025879 C109.077515,20.487305 113.14807,19.564453 111.23242,23.256836 Z"/>
</svg>