<svg xmlns="http://www.w3.org/2000/svg"
 xmlns:xlink="http://www.w3.org/1999/xlink"
 width="25px" height="26px"  viewBox="0 0 25 26">
<path fill-rule="evenodd"  fill="#ffffff"
 d="M12.231934,1.9819336 C6.036499,1.9819336 1.0131836,7.0063477 1.0131836,13.204102 C1.0131836,19.40332 6.036499,24.425781 12.231934,24.425781 C18.428223,24.425781 23.450684,19.40332 23.450684,13.204102 C23.450684,7.0063477 18.428223,1.9819336 12.231934,1.9819336 ZM19.350464,7.1518555 C20.612915,8.634277 21.415405,10.517578 21.552612,12.582031 C19.532959,12.474121 17.114258,12.476074 15.169678,12.660156 C14.926147,12.038574 14.67334,11.430176 14.401367,10.847168 C16.643555,9.87793 18.368286,8.603516 19.350464,7.1518555 ZM12.231934,3.854004 C14.49939,3.854004 16.578125,4.661621 18.196411,6.005371 C17.180054,7.2929688 15.589111,8.409668 13.60083,9.253906 C12.513062,7.2456055 11.264893,5.5151367 9.932617,4.1499023 C10.6698,3.9624023 11.4366455,3.854004 12.231934,3.854004 ZM8.002319,4.8725586 C9.352661,6.2148438 10.620972,7.930664 11.729614,9.931641 C9.618286,10.57373 7.1988525,10.9453125 4.619873,10.9453125 C4.131592,10.9453125 3.6517334,10.92627 3.1759033,10.898926 C3.8460693,8.265137 5.6313477,6.07959 8.002319,4.8725586 ZM2.8990479,12.757324 C3.430664,12.78125 3.9680176,12.790527 4.513794,12.785156 C7.456543,12.747559 10.201538,12.290527 12.554077,11.534668 C12.773804,11.996582 12.984741,12.470215 13.185791,12.957031 C12.864624,13.03125 12.579468,13.112793 12.349976,13.208984 C9.12915,14.558105 6.5949707,16.739258 5.220215,19.375977 C3.7698975,17.72705 2.8829346,15.571777 2.8829346,13.204102 C2.8829346,13.054199 2.892212,12.90625 2.8990479,12.757324 ZM12.231934,22.555664 C10.070801,22.555664 8.086304,21.815918 6.5026855,20.583984 C7.746582,18.11914 9.966675,16.07959 12.767456,14.810059 C13.032959,14.688965 13.38208,14.589844 13.783813,14.501465 C14.115234,15.427734 14.416992,16.38623 14.67627,17.376953 C15.082275,18.927246 15.3654785,20.455078 15.54126,21.941895 C14.511597,22.333984 13.399048,22.555664 12.231934,22.555664 ZM17.284546,21.064941 C17.108765,19.563477 16.822754,18.021484 16.413086,16.45459 C16.214355,15.694824 15.985596,14.958496 15.742798,14.237793 C17.575928,14.087891 19.775757,14.111328 21.520386,14.237793 C21.203613,17.10498 19.593628,19.576172 17.284546,21.064941 Z"/>
</svg>