<svg xmlns="http://www.w3.org/2000/svg"
 xmlns:xlink="http://www.w3.org/1999/xlink"
 width="25px" height="17px"  viewBox="0 0 25 17">
<path fill-rule="evenodd"  fill="#ffffff"
 d="M11.44043,2.5019531 C11.856812,3.081543 12.066772,3.7749023 12.066772,4.5839844 C12.066772,5.416504 11.856812,6.0859375 11.435425,6.59375 C11.199707,6.876465 10.852051,7.1367188 10.393799,7.3706055 C11.089844,7.623535 11.616211,8.025391 11.970581,8.57373 C12.324463,9.125 12.502563,9.791016 12.502563,10.574219 C12.502563,11.383789 12.300049,12.108398 11.893921,12.750977 C11.63623,13.175293 11.314941,13.535156 10.928345,13.824219 C10.491943,14.158203 9.979248,14.386719 9.38623,14.509766 C8.794434,14.633789 8.1521,14.6953125 7.4578857,14.6953125 C7.4578857,14.6953125 1.3109131,14.6953125 1.3109131,14.6953125 C1.3109131,14.6953125 1.3109131,1.046875 1.3109131,1.046875 C1.3109131,1.046875 7.904541,1.046875 7.904541,1.046875 C9.567627,1.0708008 10.746216,1.5566406 11.44043,2.5019531 ZM4.0317383,3.4179688 C4.0317383,3.4179688 4.0317383,6.427246 4.0317383,6.427246 C4.0317383,6.427246 7.3480225,6.427246 7.3480225,6.427246 C7.9396973,6.427246 8.421997,6.314453 8.791626,6.0878906 C9.161133,5.8637695 9.345703,5.4628906 9.345703,4.890625 C9.345703,4.2539062 9.101074,3.8339844 8.612427,3.6308594 C8.19104,3.4882812 7.654175,3.4179688 7.0009766,3.4179688 C7.0009766,3.4179688 4.0317383,3.4179688 4.0317383,3.4179688 ZM4.0317383,8.685547 C4.0317383,8.685547 4.0317383,12.324219 4.0317383,12.324219 C4.0317383,12.324219 7.3446045,12.324219 7.3446045,12.324219 C7.9362793,12.324219 8.3967285,12.245117 8.727173,12.084961 C9.325195,11.786621 9.623413,11.220215 9.623413,10.3828125 C9.623413,9.670898 9.333496,9.183594 8.754028,8.916992 C8.430298,8.768555 7.975342,8.691406 7.390503,8.685547 C7.390503,8.685547 4.0317383,8.685547 4.0317383,8.685547 ZM20.751343,4.8066406 C21.454346,5.1220703 22.03711,5.6210938 22.494019,6.3007812 C22.90857,6.9003906 23.176636,7.595703 23.30017,8.38623 C23.370361,8.849609 23.39917,9.519043 23.385986,10.388672 C23.385986,10.388672 16.036987,10.388672 16.036987,10.388672 C16.078491,11.402344 16.429565,12.111328 17.092041,12.519531 C17.49524,12.7734375 17.980469,12.899414 18.546753,12.899414 C19.147705,12.899414 19.635498,12.744141 20.01123,12.435547 C20.216309,12.268555 20.39746,12.036621 20.554077,11.741211 C20.554077,11.741211 23.249268,11.741211 23.249268,11.741211 C23.176636,12.339844 22.850464,12.948242 22.27002,13.566406 C21.366455,14.546875 20.100586,15.037109 18.474487,15.037109 C17.131104,15.037109 15.946777,14.623535 14.919556,13.795898 C13.892944,12.970703 13.380859,11.621094 13.380859,9.756836 C13.380859,8.006348 13.844116,6.6660156 14.770264,5.7319336 C15.696289,4.801758 16.899048,4.334961 18.378296,4.334961 C19.256592,4.334961 20.047852,4.4921875 20.751343,4.8066406 ZM16.804932,7.0859375 C16.432495,7.470703 16.197144,7.993164 16.100952,8.6484375 C16.100952,8.6484375 20.64685,8.6484375 20.64685,8.6484375 C20.599487,7.9467773 20.365112,7.4179688 19.94397,7.0546875 C19.523438,6.6914062 19.001709,6.5117188 18.379883,6.5117188 C17.70227,6.5117188 17.17749,6.7021484 16.804932,7.0859375 ZM21.266357,3.3808594 C21.266357,3.3808594 15.419067,3.3808594 15.419067,3.3808594 C15.419067,3.3808594 15.419067,1.6835938 15.419067,1.6835938 C15.419067,1.6835938 21.266357,1.6835938 21.266357,1.6835938 C21.266357,1.6835938 21.266357,3.3808594 21.266357,3.3808594 Z"/>
</svg>