<svg xmlns="http://www.w3.org/2000/svg"
 xmlns:xlink="http://www.w3.org/1999/xlink"
 width="13px" height="25px"  viewBox="0 0 13 25">
<path fill-rule="evenodd"  fill="#ffffff"
 d="M7.9312744,23.083984 C7.9312744,23.083984 3.3638916,23.083984 3.3638916,23.083984 C3.3638916,23.083984 3.3638916,12.041992 3.3638916,12.041992 C3.3638916,12.041992 1.0811768,12.041992 1.0811768,12.041992 C1.0811768,12.041992 1.0811768,8.235352 1.0811768,8.235352 C1.0811768,8.235352 3.3638916,8.235352 3.3638916,8.235352 C3.3638916,8.235352 3.3638916,5.9506836 3.3638916,5.9506836 C3.3638916,2.8476562 4.65271,1.0 8.312988,1.0 C8.312988,1.0 11.361084,1.0 11.361084,1.0 C11.361084,1.0 11.361084,4.8061523 11.361084,4.8061523 C11.361084,4.8061523 9.456787,4.8061523 9.456787,4.8061523 C8.031372,4.8061523 7.9365234,5.338867 7.9365234,6.3305664 C7.9365234,6.3305664 7.9312744,8.235352 7.9312744,8.235352 C7.9312744,8.235352 11.383179,8.235352 11.383179,8.235352 C11.383179,8.235352 10.978882,12.041992 10.978882,12.041992 C10.978882,12.041992 7.9312744,12.041992 7.9312744,12.041992 C7.9312744,12.041992 7.9312744,23.083984 7.9312744,23.083984 Z"/>
</svg>