<svg xmlns="http://www.w3.org/2000/svg"
 xmlns:xlink="http://www.w3.org/1999/xlink"
 width="27px" height="22px"  viewBox="0 0 27 22">
<path fill-rule="evenodd"  fill="#ffffff"
 d="M25.34314,3.800293 C24.484497,4.1811523 23.561401,4.438965 22.592285,4.5546875 C23.581299,3.961914 24.341064,3.0229492 24.698364,1.9042969 C23.772705,2.4536133 22.748169,2.8520508 21.656982,3.0664062 C20.783691,2.1357422 19.538818,1.5537109 18.161133,1.5537109 C15.516357,1.5537109 13.372314,3.6982422 13.372314,6.34375 C13.372314,6.7192383 13.414185,7.085449 13.496216,7.436035 C9.515747,7.236328 5.9870605,5.3286133 3.624878,2.430664 C3.2128906,3.1386719 2.9765625,3.9614258 2.9765625,4.8393555 C2.9765625,6.5009766 3.8220215,7.967285 5.1069336,8.826172 C4.3218994,8.800781 3.583374,8.5859375 2.9379883,8.227051 C2.9375,8.24707 2.9375,8.26709 2.9375,8.287598 C2.9375,10.608398 4.5880127,12.544434 6.7789307,12.984375 C6.3771973,13.09375 5.9538574,13.152344 5.517456,13.152344 C5.208496,13.152344 4.9086914,13.122559 4.616333,13.066406 C5.225464,14.969238 6.9941406,16.354492 9.089966,16.393066 C7.451172,17.678223 5.3862305,18.444336 3.1420898,18.444336 C2.755371,18.444336 2.3741455,18.421387 1.9996338,18.376953 C4.119385,19.73584 6.6364746,20.529297 9.341309,20.529297 C18.150024,20.529297 22.967285,13.22998 22.967285,6.899414 C22.967285,6.6918945 22.96289,6.4853516 22.953613,6.279297 C23.889526,5.604492 24.701294,4.760742 25.34314,3.800293 Z"/>
</svg>