<svg xmlns="http://www.w3.org/2000/svg"
 xmlns:xlink="http://www.w3.org/1999/xlink"
 width="63px" height="63px"  viewBox="0 0 63 63">
<path fill-rule="evenodd"  fill="#2f3238"
 d="M5.999878,43.999023 C5.999878,43.999023 50.999878,43.999023 50.999878,43.999023 C51.552124,43.999023 51.999878,44.446777 51.999878,44.99951 C51.999878,45.551758 51.552124,45.99951 50.999878,45.99951 C50.999878,45.99951 6.9999084,45.99951 6.9999084,45.99951 C6.447632,45.99951 5.999878,45.551758 5.999878,44.99951 C5.999878,44.446777 5.4476013,43.999023 5.999878,43.999023 ZM17.999878,49.99951 C17.999878,49.99951 53.999847,49.99951 53.999847,49.99951 C54.552216,49.99951 54.473053,50.714844 53.999847,50.99951 C52.874878,51.676758 53.552185,51.99951 52.99991,51.99951 C52.99991,51.99951 17.999878,51.99951 17.999878,51.99951 C17.447601,51.99951 16.999847,51.551758 16.999847,50.99951 C16.999847,50.447754 17.447601,49.99951 17.999878,49.99951 ZM34.999878,1.9946289 C34.999878,1.9946289 34.999878,1.9995117 34.999878,1.9995117 C34.44751,1.9995117 33.999847,2.4487305 33.999847,3.0019531 C33.999847,3.5561523 34.44751,4.004883 34.999878,4.004883 C34.999878,4.004883 34.999878,4.013672 34.999878,4.013672 C49.052185,5.515625 59.999878,17.433594 59.999878,31.921387 C59.999878,47.42578 47.463837,59.99414 31.999817,59.99414 C16.535889,59.99414 3.9998474,47.42578 3.9998474,31.921387 C3.9998474,17.433594 14.94754,5.515625 28.999847,4.013672 C28.999847,4.013672 28.999847,4.004883 28.999847,4.004883 C29.552124,4.004883 29.999847,3.5561523 29.999847,3.0019531 C29.999847,2.4487305 29.552124,1.9995117 28.999847,1.9995117 C28.999847,1.9995117 28.999847,1.9946289 28.999847,1.9946289 C13.840332,3.5039062 1.9997864,16.325195 1.9997864,31.921387 C1.9997864,48.532715 15.431335,61.99951 31.999817,61.99951 C48.56836,61.99951 61.999817,48.532715 61.999817,31.921387 C61.999817,16.325195 50.159393,3.5039062 34.999878,1.9946289 ZM54.999847,32.99951 C54.44757,32.99951 53.999847,32.552246 53.999847,31.999512 C53.999847,19.849121 44.150085,9.999023 31.999908,9.999023 C19.84961,9.999023 9.999878,19.849121 9.999878,31.999512 C9.999878,32.552246 9.552124,32.99951 8.999847,32.99951 C8.447571,32.99951 7.999817,32.552246 7.999817,31.999512 C7.999817,18.74414 18.745056,7.9995117 31.999908,7.9995117 C45.25473,7.9995117 55.999878,18.74414 55.999878,31.999512 C55.999878,32.552246 55.552124,32.99951 54.999847,32.99951 Z"/>
</svg>