<svg xmlns="http://www.w3.org/2000/svg"
 xmlns:xlink="http://www.w3.org/1999/xlink"
 width="57px" height="57px"  viewBox="0 0 57 57">
<path fill-rule="evenodd"  fill="#2f3238"
 d="M55.999878,37.99951 C55.999878,40.208496 54.208984,41.99951 51.999878,41.99951 C51.999878,41.99951 23.393738,41.99951 23.393738,41.99951 C23.393738,41.99951 9.7491455,55.644043 9.7491455,55.644043 C9.565735,55.85742 9.303223,55.99951 8.999817,55.99951 C8.579956,55.99951 8.223328,55.739746 8.075134,55.37256 C8.010864,55.22412 7.989685,55.067383 7.999878,54.90918 C7.999878,54.90918 7.999878,41.99951 7.999878,41.99951 C7.999878,41.99951 7.999878,41.99951 7.999878,41.99951 C7.999878,41.99951 7.999878,39.99951 7.999878,39.99951 C7.999878,39.99951 9.999878,39.99951 9.999878,39.99951 C9.999878,39.99951 9.999878,52.54248 9.999878,52.54248 C9.999878,52.54248 22.260193,40.282227 22.260193,40.282227 C22.440552,40.101562 22.6734,40.01465 22.909363,39.99951 C22.909363,39.99951 22.909363,39.99951 22.909363,39.99951 C22.952454,39.99707 22.993164,39.99707 23.036316,39.99951 C23.036316,39.99951 51.999878,39.99951 51.999878,39.99951 C53.10443,39.99951 53.999817,39.104492 53.999817,37.99951 C53.999817,37.99951 53.999878,5.9995117 53.999878,5.9995117 C53.999878,4.8950195 53.10443,3.9995117 51.999878,3.9995117 C51.999878,3.9995117 5.999878,3.9995117 5.999878,3.9995117 C4.8953247,3.9995117 3.999817,4.8950195 3.999817,5.9995117 C3.999817,5.9995117 3.999817,36.999023 3.999817,36.999023 C3.999817,36.999023 3.999878,36.999023 3.999878,36.99951 C3.999878,36.99951 3.999878,40.99951 3.999878,40.99951 C3.999878,41.55127 3.552185,41.99951 2.999878,41.99951 C2.4476318,41.99951 1.9998779,41.55127 1.9998779,40.99951 C1.9998779,40.99951 1.9998779,37.99951 1.9998779,37.99951 C1.9998779,37.99951 1.9998779,37.99951 1.9998779,37.99951 C1.9998779,37.99951 1.9998779,5.9995117 1.9998779,5.9995117 C1.9998779,3.7905273 3.7906494,1.9990234 5.999878,1.9990234 C5.999878,1.9990234 51.999878,1.9990234 51.999878,1.9990234 C54.208984,1.9990234 55.999878,3.7905273 55.999878,5.9995117 C55.999878,5.9995117 55.999878,37.99951 55.999878,37.99951 ZM9.999878,39.99951 C9.999878,40.65576 9.999878,40.447266 9.999878,40.99951 C9.999878,41.55127 9.999878,41.06201 9.999878,41.99951 C9.999878,41.99951 9.999878,39.99951 9.999878,39.99951 Z"/>
</svg>