<svg xmlns="http://www.w3.org/2000/svg"
 xmlns:xlink="http://www.w3.org/1999/xlink"
 width="57px" height="45px"  viewBox="0 0 57 45">
<path fill-rule="evenodd"  fill="#26e6e6"
 d="M12.999878,24.999512 C14.656677,24.999512 15.999817,26.342773 15.999817,27.999512 C15.999817,29.655762 14.656677,30.999512 12.999878,30.999512 C11.343079,30.999512 9.999878,29.655762 9.999878,27.999512 C9.999878,26.342773 11.343079,24.999512 12.999878,24.999512 ZM12.999878,26.999512 C13.552124,26.999512 13.999878,27.447266 13.999878,27.999512 C13.999878,28.552246 13.552124,28.999512 12.999878,28.999512 C12.447571,28.999512 11.999878,28.552246 11.999878,27.999512 C11.999878,27.447266 12.447571,26.999512 12.999878,26.999512 ZM22.999878,24.999512 C24.656738,24.999512 25.999878,26.342773 25.999878,27.999512 C25.999878,29.655762 24.656738,30.999512 22.999878,30.999512 C21.343018,30.999512 19.999817,29.655762 19.999817,27.999512 C19.999817,26.342773 21.343018,24.999512 22.999878,24.999512 ZM22.999878,26.999512 C23.552185,26.999512 23.999817,27.447266 23.999817,27.999512 C23.999817,28.552246 23.552185,28.999512 22.999878,28.999512 C22.44751,28.999512 21.999878,28.552246 21.999878,27.999512 C21.999878,27.447266 22.44751,26.999512 22.999878,26.999512 ZM32.999878,24.999512 C34.656677,24.999512 35.999817,26.342773 35.999817,27.999512 C35.999817,29.655762 34.656677,30.999512 32.999878,30.999512 C31.343018,30.999512 29.999878,29.655762 29.999878,27.999512 C29.999878,26.342773 31.343018,24.999512 32.999878,24.999512 ZM32.999878,26.999512 C33.552124,26.999512 33.999878,27.447266 33.999878,27.999512 C33.999878,28.552246 33.552124,28.999512 32.999878,28.999512 C32.44757,28.999512 31.999817,28.552246 31.999817,27.999512 C31.999817,27.447266 32.44757,26.999512 32.999878,26.999512 ZM54.999878,43.99951 C54.44763,43.99951 53.999756,43.551758 53.999756,42.99951 C53.999756,42.99951 53.999756,5.9995117 53.999756,5.9995117 C53.999756,4.8945312 53.10437,3.9995117 51.999817,3.9995117 C51.999817,3.9995117 3.999878,3.9995117 3.999878,3.9995117 C3.999878,3.9995117 3.999878,3.9995117 3.999878,3.9995117 C3.999878,3.9995117 2.999817,3.9995117 2.999817,3.9995117 C2.4475708,3.9995117 1.9998169,3.5517578 1.9998169,2.9995117 C1.9998169,2.4467773 2.4475708,1.9995117 2.999817,1.9995117 C2.999817,1.9995117 12.999878,1.9995117 12.999878,1.9995117 C12.999878,1.9995117 12.999878,1.9995117 12.999939,1.9995117 C12.999939,1.9995117 51.999817,1.9995117 51.999817,1.9995117 C54.208984,1.9995117 55.999817,3.7905273 55.999817,5.9995117 C55.999817,5.9995117 55.999817,42.99951 55.999817,42.99951 C55.999817,43.551758 55.552063,43.99951 54.999878,43.99951 Z"/>
</svg>