<svg xmlns="http://www.w3.org/2000/svg"
 xmlns:xlink="http://www.w3.org/1999/xlink"
 width="41px" height="63px"  viewBox="0 0 41 63">
<path fill-rule="evenodd"  fill="#2f3238"
 d="M5.999939,1.9995117 C5.999939,1.9995117 35.999878,1.9995117 35.999878,1.9995117 C38.209106,1.9995117 39.999878,3.7905273 39.999878,5.9995117 C39.999878,5.9995117 39.999878,58.0 39.999878,58.0 C39.999878,60.208984 38.209106,61.99951 35.999878,61.99951 C35.999878,61.99951 5.999939,61.99951 5.999939,61.99951 C3.7907715,61.99951 1.999939,60.208984 1.999939,58.0 C1.999939,58.0 1.999939,5.9995117 1.999939,5.9995117 C1.999939,3.7905273 3.7907715,1.9995117 5.999939,1.9995117 ZM5.999939,3.9995117 C5.999939,3.9995117 35.999878,3.9995117 35.999878,3.9995117 C37.104492,3.9995117 37.999878,4.8945312 37.999878,5.9995117 C37.999878,5.9995117 37.999878,58.0 37.999878,58.0 C37.999878,59.104004 37.104492,59.99951 35.999878,59.99951 C35.999878,59.99951 5.999939,59.99951 5.999939,59.99951 C4.8953247,59.99951 3.999939,59.104004 3.999939,58.0 C3.999939,58.0 3.999939,5.9995117 3.999939,5.9995117 C3.999939,4.8945312 4.8953247,3.9995117 5.999939,3.9995117 ZM2.999878,49.99951 C2.999878,49.99951 32.999878,49.99951 32.999878,49.99951 C33.552124,49.99951 33.999878,50.447754 33.999878,50.99951 C33.999878,51.551758 33.552124,51.99951 32.999878,51.99951 C32.999878,51.99951 2.999878,51.99951 2.999878,51.99951 C2.4476318,51.99951 1.999939,51.551758 1.999939,50.99951 C1.999939,50.447754 2.4476318,49.99951 2.999878,49.99951 ZM8.999939,11.999512 C8.999939,11.999512 39.0,11.999512 39.0,11.999512 C39.552246,11.999512 39.999878,12.446777 39.999878,12.999512 C39.999878,13.551758 39.552246,13.999512 39.0,13.999512 C39.0,13.999512 8.999939,13.999512 8.999939,13.999512 C8.447632,13.999512 7.999878,13.551758 7.999878,12.999512 C7.999878,12.446777 8.447632,11.999512 8.999939,11.999512 Z"/>
</svg>