<svg xmlns="http://www.w3.org/2000/svg"
 xmlns:xlink="http://www.w3.org/1999/xlink"
 width="20px" height="54px"  viewBox="0 0 20 54">
<path fill-rule="evenodd"  fill="#26e6e6"
 d="M14.999878,48.99951 C16.104492,48.99951 17.0,49.89502 17.0,50.99951 C17.0,52.103516 16.104492,53.0 14.999878,53.0 C13.895386,53.0 12.999878,52.103516 12.999878,50.99951 C12.999878,49.89502 13.895386,48.99951 14.999878,48.99951 ZM12.0,1.9995117 C12.0,1.9995117 17.999878,1.9995117 17.999878,1.9995117 C18.552124,1.9995117 18.999878,2.4472656 18.999878,2.9995117 C18.999878,3.552246 18.552124,3.9995117 17.999878,3.9995117 C17.999878,3.9995117 12.0,3.9995117 12.0,3.9995117 C11.447632,3.9995117 10.999878,3.552246 10.999878,2.9995117 C10.999878,2.4472656 11.447632,1.9995117 12.0,1.9995117 ZM2.284668,17.356934 C2.284668,17.356934 6.357544,13.28418 6.357544,13.28418 C6.732422,12.90918 7.340332,12.90918 7.71521,13.28418 C8.090088,13.65918 8.090088,14.26709 7.71521,14.64209 C7.71521,14.64209 3.642212,18.714355 3.642212,18.714355 C3.267334,19.089355 2.659546,19.089355 2.284668,18.714355 C1.909668,18.339844 1.909668,17.731934 2.284668,17.356934 ZM2.284668,23.357422 C2.284668,23.357422 12.357544,13.28418 12.357544,13.28418 C12.732422,12.90918 13.340332,12.90918 13.71521,13.28418 C14.090088,13.65918 14.090088,14.26709 13.71521,14.64209 C13.71521,14.64209 3.642212,24.714355 3.642212,24.714355 C3.267334,25.089355 2.659546,25.089355 2.284668,24.714355 C1.909668,24.339844 1.909668,23.731934 2.284668,23.357422 Z"/>
</svg>