<svg xmlns="http://www.w3.org/2000/svg"
 xmlns:xlink="http://www.w3.org/1999/xlink"
 width="63px" height="63px"  viewBox="0 0 63 63">
<path fill-rule="evenodd"  fill="#2f3238"
 d="M60.99991,62.0 C60.44763,62.0 59.999878,61.551758 59.999878,61.0 C59.999878,61.0 59.999878,5.9995117 59.999878,5.9995117 C59.999878,4.8950195 59.10446,4.0 57.99994,4.0 C57.99994,4.0 5.999878,4.0 5.999878,4.0 C4.8953247,4.0 3.999939,4.8950195 3.999939,5.9995117 C3.999939,5.9995117 3.999939,57.99951 3.999939,57.99951 C3.999939,59.104492 4.8953247,60.0 5.999878,60.0 C5.999878,60.0 54.999847,60.0 54.999847,60.0 C55.552216,60.0 55.999878,60.447266 55.999878,61.0 C55.999878,61.551758 55.552216,62.0 54.999847,62.0 C54.999847,62.0 5.999878,62.0 5.999878,62.0 C3.790802,62.0 1.9998779,60.208984 1.9998779,57.99951 C1.9998779,57.99951 1.9998779,5.9995117 1.9998779,5.9995117 C1.9998779,3.7905273 3.790802,1.9995117 5.999878,1.9995117 C5.999878,1.9995117 57.99994,1.9995117 57.99994,1.9995117 C60.209015,1.9995117 61.99994,3.7905273 61.99994,5.9995117 C61.99994,5.9995117 61.99994,61.0 61.99994,61.0 C61.99994,61.551758 61.552185,62.0 60.99991,62.0 ZM48.0,23.999512 C50.209076,23.999512 51.99997,25.790527 51.99997,28.0 C51.99997,30.208984 50.209076,31.999512 48.0,31.999512 C45.790802,31.999512 44.0,30.208984 44.0,28.0 C44.0,25.790527 45.790802,23.999512 48.0,23.999512 ZM48.0,25.999512 C49.104523,25.999512 49.99994,26.89502 49.99994,28.0 C49.99994,29.104004 49.104523,29.999512 48.0,29.999512 C46.895355,29.999512 45.99994,29.104004 45.99994,28.0 C45.99994,26.89502 46.895355,25.999512 48.0,25.999512 ZM48.0,12.0 C48.552246,12.0 48.99991,12.447754 48.99991,13.0 C48.99991,13.0 48.99991,19.0 48.99991,19.0 C48.99991,19.552246 48.552246,20.0 48.0,20.0 C47.44763,20.0 46.99997,19.552246 46.99997,19.0 C46.99997,19.0 46.99997,13.0 46.99997,13.0 C46.99997,12.447754 47.44763,12.0 48.0,12.0 ZM15.999908,39.99951 C13.7908325,39.99951 11.999939,38.208984 11.999939,36.0 C11.999939,33.790527 13.7908325,31.999512 15.999908,31.999512 C18.209106,31.999512 19.999908,33.790527 19.999908,36.0 C19.999908,38.208984 18.209106,39.99951 15.999908,39.99951 ZM15.999908,37.99951 C14.895386,37.99951 13.9999695,37.104004 13.9999695,36.0 C13.9999695,34.89502 14.895386,33.99951 15.999908,33.99951 C17.104462,33.99951 17.99997,34.89502 17.99997,36.0 C17.99997,37.104004 17.104462,37.99951 15.999908,37.99951 ZM15.999908,28.0 C15.447632,28.0 14.999908,27.552246 14.999908,27.0 C14.999908,27.0 14.999908,13.0 14.999908,13.0 C14.999908,12.447754 15.447632,12.0 15.999908,12.0 C16.552185,12.0 16.999939,12.447754 16.999939,13.0 C16.999939,13.0 16.999939,27.0 16.999939,27.0 C16.999939,27.552246 16.552185,28.0 15.999908,28.0 ZM31.999908,20.0 C29.790802,20.0 27.999908,18.208984 27.999908,15.999512 C27.999908,13.790527 29.790802,12.0 31.999908,12.0 C34.209106,12.0 35.99991,13.790527 35.99991,15.999512 C35.99991,18.208984 34.209106,20.0 31.999908,20.0 ZM31.999908,18.0 C30.895355,18.0 29.999939,17.104492 29.999939,15.999512 C29.999939,14.895508 30.895355,13.999512 31.999908,13.999512 C33.104553,13.999512 33.99994,14.895508 33.99994,15.999512 C33.99994,17.104492 33.104553,18.0 31.999908,18.0 Z"/>
</svg>