<svg xmlns="http://www.w3.org/2000/svg"
 xmlns:xlink="http://www.w3.org/1999/xlink"
 width="37px" height="31px"  viewBox="0 0 37 31">
<path fill-rule="evenodd"  fill="#26e6e6"
 d="M35.0,14.0 C35.552246,14.0 35.99991,14.447754 35.99991,15.0 C35.99991,15.0 35.99991,29.0 35.99991,29.0 C35.99991,29.552246 35.552246,30.0 35.0,30.0 C34.44763,30.0 33.99997,29.552246 33.99997,29.0 C33.99997,29.0 33.99997,15.0 33.99997,15.0 C33.99997,14.447754 34.44763,14.0 35.0,14.0 ZM2.9999084,30.0 C2.4476318,30.0 1.9999084,29.552246 1.9999084,29.0 C1.9999084,29.0 1.9999084,23.0 1.9999084,23.0 C1.9999084,22.447754 2.4476318,22.0 2.9999084,22.0 C3.552185,22.0 3.999939,22.447754 3.999939,23.0 C3.999939,23.0 3.999939,29.0 3.999939,29.0 C3.999939,29.552246 3.552185,30.0 2.9999084,30.0 ZM18.999908,1.9995117 C19.552277,1.9995117 19.999939,2.4472656 19.999939,2.9995117 C19.999939,2.9995117 19.999939,29.0 19.999939,29.0 C19.999939,29.552246 19.552277,30.0 18.999908,30.0 C18.447632,30.0 17.99997,29.552246 17.99997,29.0 C17.99997,29.0 17.99997,2.9995117 17.99997,2.9995117 C17.99997,2.4472656 18.447632,1.9995117 18.999908,1.9995117 Z"/>
</svg>