<svg xmlns="http://www.w3.org/2000/svg"
 xmlns:xlink="http://www.w3.org/1999/xlink"
 width="64px" height="48px"  viewBox="0 0 64 48">
<path fill-rule="evenodd"  fill="#2f3238"
 d="M24.999939,39.0 C27.209045,39.0 28.999939,40.790527 28.999939,42.99951 C28.999939,45.208496 27.209045,47.0 24.999939,47.0 C22.790771,47.0 20.999939,45.208496 20.999939,42.99951 C20.999939,40.790527 22.790771,39.0 24.999939,39.0 ZM24.999939,40.99951 C26.104492,40.99951 26.999878,41.895508 26.999878,42.99951 C26.999878,44.104492 26.104492,44.99951 24.999939,44.99951 C23.895325,44.99951 22.999878,44.104492 22.999878,42.99951 C22.999878,41.895508 23.895325,40.99951 24.999939,40.99951 ZM50.999878,39.0 C53.209045,39.0 54.999878,40.790527 54.999878,42.99951 C54.999878,45.208496 53.209045,47.0 50.999878,47.0 C48.79077,47.0 46.999878,45.208496 46.999878,42.99951 C46.999878,40.790527 48.79077,39.0 50.999878,39.0 ZM50.999878,40.99951 C52.104492,40.99951 52.99994,41.895508 52.99994,42.99951 C52.99994,44.104492 52.104492,44.99951 50.999878,44.99951 C49.895325,44.99951 48.99994,44.104492 48.99994,42.99951 C48.99994,41.895508 49.895325,40.99951 50.999878,40.99951 ZM2.999939,1.9995117 C2.999939,1.9995117 12.999939,1.9995117 12.999939,1.9995117 C13.552246,1.9995117 13.999878,2.4472656 13.999878,2.9995117 C13.999878,3.552246 13.552246,3.9995117 12.999939,3.9995117 C12.999939,3.9995117 2.999939,3.9995117 2.999939,3.9995117 C2.4476318,3.9995117 1.9998779,3.552246 1.9998779,2.9995117 C1.9998779,2.4472656 2.4476318,1.9995117 2.999939,1.9995117 ZM12.707275,2.0166016 C13.227783,1.8730469 13.762695,2.1904297 13.9021,2.7265625 C13.9021,2.7265625 21.982422,33.753418 21.982422,33.753418 C22.121826,34.289062 21.812927,34.839355 21.292542,34.98291 C20.772034,35.126465 20.237122,34.808594 20.097656,34.273438 C20.097656,34.273438 12.017456,3.2460938 12.017456,3.2460938 C11.87793,2.7104492 12.186829,2.1601562 12.707275,2.0166016 ZM20.999939,32.99951 C20.999939,32.99951 53.99994,32.99951 53.99994,32.99951 C54.552185,32.99951 54.999878,33.447754 54.999878,33.99951 C54.999878,34.551758 54.552185,34.99951 53.99994,34.99951 C53.99994,34.99951 20.999939,34.99951 20.999939,34.99951 C20.44757,34.99951 19.999939,34.551758 19.999939,33.99951 C19.999939,33.447754 20.44757,32.99951 20.999939,32.99951 ZM61.252808,7.0249023 C61.786194,7.1674805 62.102844,7.7148438 61.9599,8.24707 C61.9599,8.24707 54.97174,34.269043 54.97174,34.269043 C54.828857,34.80127 54.280518,35.117188 53.74701,34.97461 C53.213562,34.83203 52.897034,34.284668 53.039978,33.75244 C53.039978,33.75244 60.028015,7.7304688 60.028015,7.7304688 C60.17096,7.198242 60.71936,6.882324 61.252808,7.0249023 ZM20.999939,7.0 C20.999939,7.0 60.999878,7.0 60.999878,7.0 C61.552185,7.0 61.99994,7.447754 61.99994,8.0 C61.99994,8.551758 61.552185,8.999512 60.999878,8.999512 C60.999878,8.999512 20.999939,8.999512 20.999939,8.999512 C20.44757,8.999512 19.999939,8.551758 19.999939,8.0 C19.999939,7.447754 20.44757,7.0 20.999939,7.0 ZM33.99994,41.99951 C33.99994,41.99951 41.99994,41.99951 41.99994,41.99951 C42.552246,41.99951 42.999878,42.447266 42.999878,42.99951 C42.999878,43.551758 42.552246,43.99951 41.99994,43.99951 C41.99994,43.99951 33.99994,43.99951 33.99994,43.99951 C33.44757,43.99951 32.99994,43.551758 32.99994,42.99951 C32.99994,42.447266 33.44757,41.99951 33.99994,41.99951 Z"/>
</svg>