<svg xmlns="http://www.w3.org/2000/svg"
 xmlns:xlink="http://www.w3.org/1999/xlink"
 width="19px" height="19px"  viewBox="0 0 19 19">
<path fill-rule="evenodd"  fill="#26e6e6"
 d="M6.999878,1.9995117 C7.552124,1.9995117 7.999878,2.4472656 7.999878,3.0 C7.999878,3.0 7.999878,16.999512 7.999878,16.999512 C7.999878,17.552246 7.552124,17.999512 6.999878,17.999512 C6.447632,17.999512 5.999939,17.552246 5.999939,16.999512 C5.999939,16.999512 5.999939,3.0 5.999939,3.0 C5.999939,2.4472656 6.447632,1.9995117 6.999878,1.9995117 ZM12.999939,1.9995117 C13.552185,1.9995117 13.999939,2.4472656 13.999939,3.0 C13.999939,3.0 13.999939,16.999512 13.999939,16.999512 C13.999939,17.552246 13.552185,17.999512 12.999939,17.999512 C12.447632,17.999512 11.999878,17.552246 11.999878,16.999512 C11.999878,16.999512 11.999878,3.0 11.999878,3.0 C11.999878,2.4472656 12.447632,1.9995117 12.999939,1.9995117 ZM17.999939,6.9995117 C17.999939,7.551758 17.552185,7.9995117 16.999939,7.9995117 C16.999939,7.9995117 2.999878,7.9995117 2.999878,7.9995117 C2.4476318,7.9995117 1.9998779,7.551758 1.9998779,6.9995117 C1.9998779,6.447754 2.4476318,5.9995117 2.999878,5.9995117 C2.999878,5.9995117 16.999939,5.9995117 16.999939,5.9995117 C17.552185,5.9995117 17.999939,6.447754 17.999939,6.9995117 ZM17.999939,13.0 C17.999939,13.551758 17.552185,13.999512 16.999939,13.999512 C16.999939,13.999512 2.999878,13.999512 2.999878,13.999512 C2.4476318,13.999512 1.9998779,13.551758 1.9998779,13.0 C1.9998779,12.447266 2.4476318,12.0 2.999878,12.0 C2.999878,12.0 16.999939,12.0 16.999939,12.0 C17.552185,12.0 17.999939,12.447266 17.999939,13.0 Z"/>
</svg>