<svg xmlns="http://www.w3.org/2000/svg"
 xmlns:xlink="http://www.w3.org/1999/xlink"
 width="28px" height="27px"  viewBox="0 0 28 27">
<path fill-rule="evenodd"  fill="#26e6e6"
 d="M26.374878,24.999512 C26.374878,25.552246 25.927246,26.0 25.375,26.0 C25.375,26.0 3.0,26.0 3.0,26.0 C2.4476318,26.0 2.0,25.552246 2.0,24.999512 C2.0,24.999512 2.0,24.999512 2.0,24.999512 C2.0,24.999512 2.0,2.625 2.0,2.625 C2.0,2.0722656 2.4476318,1.6245117 3.0,1.6245117 C3.552246,1.6245117 3.999878,2.0722656 3.999878,2.625 C3.999878,2.625 3.999878,23.999512 3.999878,23.999512 C3.999878,23.999512 24.089722,23.999512 24.089722,23.999512 C22.003662,15.908203 16.401611,9.241211 8.999878,5.722168 C8.999878,5.722168 8.620972,5.557617 8.45166,5.407715 C8.185669,5.2280273 7.999878,4.938965 7.999878,4.5932617 C7.999878,4.0410156 8.447632,3.5932617 8.999878,3.5932617 C9.178589,3.5932617 9.33728,3.652832 9.482422,3.7353516 C9.48645,3.7358398 9.489868,3.7294922 9.4938965,3.7314453 C18.068481,7.666504 24.472046,15.515625 26.39746,24.999512 C26.39746,24.999512 26.374878,24.999512 26.374878,24.999512 Z"/>
</svg>