<svg xmlns="http://www.w3.org/2000/svg"
 xmlns:xlink="http://www.w3.org/1999/xlink"
 width="55px" height="55px"  viewBox="0 0 55 55">
<path fill-rule="evenodd"  fill="#2f3238"
 d="M53.19055,34.31299 C50.367798,45.61621 40.17749,53.99951 27.999878,53.99951 C13.640564,53.99951 1.9998779,42.358887 1.9998779,27.999512 C1.9998779,13.978027 13.107788,2.5800781 26.999878,2.0498047 C26.999878,2.0498047 26.999878,2.0625 26.999878,2.0625 C27.552124,2.0625 27.999878,2.510254 27.999878,3.0620117 C27.999878,3.6142578 27.552124,4.0620117 26.999878,4.0620117 C26.985352,4.0620117 26.973267,4.0546875 26.958862,4.053711 C14.190918,4.6030273 3.999939,15.09668 3.999939,27.999512 C3.999939,41.254883 14.745117,51.99951 27.999878,51.99951 C39.17737,51.99951 48.53064,44.34424 51.197266,34.0 C51.197266,34.0 51.223755,33.87207 51.266113,33.76465 C51.37439,33.3291 51.749878,33.0 52.218628,33.0 C52.770996,33.0 53.21875,33.447754 53.21875,34.0 C53.21875,34.103027 53.219116,34.198242 53.19055,34.31299 ZM27.999878,2.0 C28.552246,2.0 29.0,2.447754 29.0,2.9995117 C29.0,2.9995117 29.0,27.999512 29.0,27.999512 C29.0,28.551758 28.552246,28.999512 27.999878,28.999512 C27.447632,28.999512 26.999878,28.551758 26.999878,27.999512 C26.999878,27.999512 26.999878,2.9995117 26.999878,2.9995117 C26.999878,2.447754 27.447632,2.0 27.999878,2.0 ZM27.999878,26.999512 C27.999878,26.999512 52.999878,26.999512 52.999878,26.999512 C53.552246,26.999512 54.0,27.447754 54.0,27.999512 C54.0,28.551758 53.552246,28.999512 52.999878,28.999512 C52.999878,28.999512 27.999878,28.999512 27.999878,28.999512 C27.447632,28.999512 26.999878,28.551758 26.999878,27.999512 C26.999878,27.447754 27.447632,26.999512 27.999878,26.999512 ZM28.717651,27.282227 C29.102783,27.666992 29.102783,28.291504 28.717651,28.676758 C28.717651,28.676758 16.677063,40.717285 16.677063,40.717285 C16.29187,41.10254 15.667358,41.10254 15.282227,40.717285 C14.897034,40.33203 14.897034,39.70752 15.282227,39.322754 C15.282227,39.322754 27.322754,27.282227 27.322754,27.282227 C27.708008,26.896973 28.33252,26.896973 28.717651,27.282227 Z"/>
</svg>