<svg xmlns="http://www.w3.org/2000/svg"
 xmlns:xlink="http://www.w3.org/1999/xlink"
 width="64px" height="63px"  viewBox="0 0 64 63">
<path fill-rule="evenodd"  fill="#2f3238"
 d="M60.79608,14.530029 C60.79608,14.530029 24.530518,50.795532 24.530518,50.795532 C23.931885,51.39392 23.190979,51.76007 22.41687,51.901794 C22.289062,51.961304 22.150024,51.999207 21.999939,51.999207 C21.999939,51.999207 12.999939,51.999207 12.999939,51.999207 C12.999939,51.999207 12.999939,51.999207 12.999939,51.999207 C12.861816,51.999207 12.730347,51.97119 12.610657,51.92047 C12.371338,51.81909 12.1796875,51.627686 12.078491,51.38855 C12.027832,51.26892 11.999878,51.137085 11.999878,50.999268 C11.999878,50.999268 11.999878,42.315247 11.999878,42.315247 C11.999695,42.289673 11.999695,42.2641 11.999878,42.238464 C11.999878,42.238464 11.999878,41.99933 11.999878,41.99933 C11.999878,41.922546 12.027161,41.854675 12.043579,41.783325 C12.149414,40.926575 12.514526,40.095398 13.172424,39.4375 C13.172424,39.4375 49.437927,3.171997 49.437927,3.171997 C51.006226,1.6036377 53.54883,1.6036377 55.117065,3.171997 C55.117065,3.171997 60.79608,8.850769 60.79608,8.850769 C62.36432,10.419067 62.36432,12.961731 60.79608,14.530029 ZM59.414185,10.244873 C59.414185,10.244873 53.72278,4.5532837 53.72278,4.5532837 C52.93695,3.767395 51.662903,3.767395 50.877075,4.5532837 C50.877075,4.5532837 13.999939,41.43097 13.999939,41.43097 C13.999939,41.43097 13.999939,41.99933 13.999939,41.99933 C13.999939,41.99933 13.999939,49.99933 13.999939,49.99933 C13.999939,49.99933 21.999939,49.99933 21.999939,49.99933 C21.999939,49.99933 22.505554,49.99933 22.505554,49.99933 C22.505554,49.99933 59.414185,13.090637 59.414185,13.090637 C60.200012,12.30481 60.200012,11.030762 59.414185,10.244873 ZM13.289246,40.28882 C13.697327,39.88086 14.359009,39.88086 14.766968,40.28882 C14.766968,40.28882 23.677856,49.199707 23.677856,49.199707 C24.085938,49.607605 24.085938,50.268982 23.677856,50.67743 C23.269775,51.08539 22.608215,51.08539 22.200134,50.67743 C22.200134,50.67743 13.289246,41.7666 13.289246,41.7666 C12.881287,41.358643 12.881287,40.696777 13.289246,40.28882 ZM43.289307,11.288635 C43.697388,10.880676 44.358948,10.880676 44.76703,11.288635 C44.76703,11.288635 48.677856,15.199768 48.677856,15.199768 C49.085938,15.607727 49.085938,16.269104 48.677856,16.677063 C48.269775,17.08551 47.608215,17.08551 47.200134,16.677063 C47.200134,16.677063 43.289307,12.766357 43.289307,12.766357 C42.881226,12.358398 42.881226,11.696533 43.289307,11.288635 ZM2.999878,1.9993286 C3.552185,1.9993286 3.999878,2.4471436 3.999878,2.9997559 C3.999878,2.9997559 3.999878,60.999146 3.999878,60.999146 C3.999878,61.551758 3.552185,61.999573 2.999878,61.999573 C2.4476318,61.999573 1.9998779,61.551758 1.9998779,60.999146 C1.9998779,60.999146 1.9998779,2.9997559 1.9998779,2.9997559 C1.9998779,2.4471436 2.4476318,1.9993286 2.999878,1.9993286 ZM61.999878,60.999146 C61.999878,61.551758 61.552124,61.999573 60.999878,61.999573 C60.999878,61.999573 8.999939,61.999573 8.999939,61.999573 C8.447632,61.999573 7.999878,61.551758 7.999878,60.999146 C7.999878,60.44702 8.447632,59.999207 8.999939,59.999207 C8.999939,59.999207 60.999878,59.999207 60.999878,59.999207 C61.552124,59.999207 61.999878,60.44702 61.999878,60.999146 ZM2.999878,1.9993286 C2.999878,1.9993286 32.999878,1.9993286 32.999878,1.9993286 C33.552185,1.9993286 33.99994,2.4471436 33.99994,2.9997559 C33.99994,3.5513916 33.552185,3.9992065 32.999878,3.9992065 C32.999878,3.9992065 2.999878,3.9992065 2.999878,3.9992065 C2.4476318,3.9992065 1.9998779,3.5513916 1.9998779,2.9997559 C1.9998779,2.4471436 2.4476318,1.9993286 2.999878,1.9993286 ZM59.99994,60.999146 C59.99994,60.999146 59.99994,30.999023 59.99994,30.999023 C59.99994,30.447388 60.44763,29.999084 60.999878,29.999084 C61.552124,29.999084 61.999878,30.447388 61.999878,30.999023 C61.999878,30.999023 61.999878,60.999146 61.999878,60.999146 C61.999878,61.551758 61.552124,61.999573 60.999878,61.999573 C60.44763,61.999573 59.99994,61.551758 59.99994,60.999146 Z"/>
</svg>