<svg xmlns="http://www.w3.org/2000/svg"
 xmlns:xlink="http://www.w3.org/1999/xlink"
 width="52px" height="29px"  viewBox="0 0 52 29">
<path fill-rule="evenodd"  fill="#26e6e6"
 d="M49.691833,2.276062 C50.082947,2.6672974 50.082947,3.3015747 49.691833,3.69281 C49.691833,3.69281 26.693329,26.690918 26.693329,26.690918 C26.302124,27.082642 25.667938,27.082642 25.276733,26.690918 C24.885529,26.30017 24.885529,25.665894 25.276733,25.274658 C25.276733,25.274658 48.27527,2.276062 48.27527,2.276062 C48.666443,1.885315 49.30066,1.885315 49.691833,2.276062 ZM2.308075,2.276062 C1.9168701,2.6672974 1.9168701,3.3015747 2.308075,3.69281 C2.308075,3.69281 25.30658,26.690918 25.30658,26.690918 C25.697693,27.082642 26.33197,27.082642 26.723083,26.690918 C27.114288,26.30017 27.114288,25.665894 26.723083,25.274658 C26.723083,25.274658 3.7245483,2.276062 3.7245483,2.276062 C3.3334656,1.885315 2.6991577,1.885315 2.308075,2.276062 Z"/>
</svg>