<svg xmlns="http://www.w3.org/2000/svg"
 xmlns:xlink="http://www.w3.org/1999/xlink"
 width="31px" height="18px"  viewBox="0 0 31 18">
<path fill-rule="evenodd"  fill="#26e6e6"
 d="M2.999878,1.9991455 C2.999878,1.9991455 17.0,1.9991455 17.0,1.9991455 C17.552246,1.9991455 17.999878,2.4469604 17.999878,2.9990845 C17.999878,3.5516968 17.552246,3.9990234 17.0,3.9990234 C17.0,3.9990234 2.999878,3.9990234 2.999878,3.9990234 C2.4476318,3.9990234 1.9998779,3.5516968 1.9998779,2.9990845 C1.9998779,2.4469604 2.4476318,1.9991455 2.999878,1.9991455 ZM2.999878,14.999817 C2.999878,14.999817 29.0,14.999817 29.0,14.999817 C29.552246,14.999817 30.0,15.447144 30.0,15.999756 C30.0,16.551392 29.552246,16.999207 29.0,16.999207 C29.0,16.999207 2.999878,16.999207 2.999878,16.999207 C2.4476318,16.999207 1.9998779,16.551392 1.9998779,15.999756 C1.9998779,15.447144 2.4476318,14.999817 2.999878,14.999817 Z"/>
</svg>