<svg xmlns="http://www.w3.org/2000/svg"
 xmlns:xlink="http://www.w3.org/1999/xlink"
 width="63px" height="49px"  viewBox="0 0 63 49">
<path fill-rule="evenodd"  fill="#2f3238"
 d="M57.99994,47.999023 C57.99994,47.999023 5.999878,47.999023 5.999878,47.999023 C3.790802,47.999023 1.9998779,46.2088 1.9998779,43.999268 C1.9998779,43.999268 1.9998779,8.999451 1.9998779,8.999451 C1.9998779,8.447327 2.4476318,7.9995117 2.9999084,7.9995117 C3.552185,7.9995117 3.999939,8.447327 3.999939,8.999451 C3.999939,8.999451 3.999939,43.999268 3.999939,43.999268 C3.999939,45.104004 4.8953247,45.999146 5.999878,45.999146 C5.999878,45.999146 57.99994,45.999146 57.99994,45.999146 C59.104492,45.999146 59.999878,45.104004 59.999878,43.999268 C59.999878,43.999268 59.999878,5.9991455 59.999878,5.9991455 C59.999878,4.8948975 59.104492,3.9997559 57.99994,3.9997559 C57.99994,3.9997559 2.9999084,3.9997559 2.9999084,3.9997559 C2.4476318,3.9997559 1.9998779,3.5514526 1.9998779,2.9993286 C1.9998779,2.4472046 2.4476318,1.9993896 2.9999084,1.9993896 C2.9999084,1.9993896 57.99994,1.9993896 57.99994,1.9993896 C60.209015,1.9993896 61.99994,3.7901 61.99994,5.9991455 C61.99994,5.9991455 61.99994,43.999268 61.99994,43.999268 C61.99994,46.2088 60.209015,47.999023 57.99994,47.999023 Z"/>
</svg>