<svg xmlns="http://www.w3.org/2000/svg"
 xmlns:xlink="http://www.w3.org/1999/xlink"
 width="63px" height="46px"  viewBox="0 0 63 46">
<path fill-rule="evenodd"  fill="#2f3238"
 d="M46.999878,44.999207 C46.999878,44.999207 21.999878,44.999207 21.999878,44.999207 C19.790771,44.999207 18.0,43.208496 18.0,40.99945 C18.0,40.266724 18.21106,39.5896 18.554688,38.999084 C18.554688,38.999084 18.0,38.999084 18.0,38.999084 C15.7907715,38.999084 14.0,37.208374 14.0,34.99933 C14.0,34.99933 15.999878,34.99933 15.999878,34.99933 C15.999878,36.104065 16.895386,36.999207 18.0,36.999207 C18.0,36.999207 21.999878,36.999207 21.999878,36.999207 C21.999878,36.999207 33.999878,36.999207 33.999878,36.999207 C33.999878,37.18573 33.999878,37.39093 33.999878,37.609436 C33.999878,38.005554 33.999878,38.46173 33.999878,38.999084 C33.999878,38.999084 21.999878,38.999084 21.999878,38.999084 C20.895386,38.999084 19.999878,39.894714 19.999878,40.99945 C19.999878,42.104187 20.895386,42.99933 21.999878,42.99933 C21.999878,42.99933 46.999878,42.99933 46.999878,42.99933 C54.179688,42.99933 60.0,37.178833 60.0,29.999634 C60.0,22.819458 54.179688,16.99945 46.999878,16.99945 C46.999878,16.99945 32.0,16.99945 32.0,16.99945 C30.895386,16.99945 29.999878,17.89508 29.999878,18.999329 C29.999878,20.103577 30.895386,20.999207 32.0,20.999207 C32.0,20.999207 41.999878,20.999207 41.999878,20.999207 C41.999878,21.742249 41.999878,22.405151 41.999878,22.999084 C41.999878,22.999084 32.0,22.999084 32.0,22.999084 C29.790771,22.999084 27.999878,21.208374 27.999878,18.999329 C27.999878,16.790283 29.790771,14.999084 32.0,14.999084 C32.0,14.999084 46.999878,14.999084 46.999878,14.999084 C55.28418,14.999084 61.999878,21.71521 61.999878,29.999634 C61.999878,38.28308 55.28418,44.999207 46.999878,44.999207 ZM48.999878,29.999634 C44.029297,29.999634 40.0,25.969849 40.0,20.999207 C40.0,20.999207 41.999878,20.999207 41.999878,20.999207 C41.999878,24.865112 45.134033,27.999756 48.999878,27.999756 C49.552246,27.999756 49.999878,28.447083 49.999878,28.999207 C49.999878,29.551819 49.552246,29.999634 48.999878,29.999634 ZM37.999878,34.99933 C37.999878,34.99933 6.0,34.99933 6.0,34.99933 C3.7907715,34.99933 2.0,33.20862 2.0,30.999573 C2.0,30.999573 2.0,2.9993286 2.0,2.9993286 C2.0,2.4472046 2.4476318,1.9993896 2.999878,1.9993896 C3.552246,1.9993896 3.999878,2.4472046 3.999878,2.9993286 C3.999878,2.9993286 3.999878,30.999573 3.999878,30.999573 C3.999878,32.10382 4.8952637,32.99945 6.0,32.99945 C6.0,32.99945 37.999878,32.99945 37.999878,32.99945 C39.104492,32.99945 40.0,32.10382 40.0,30.999573 C40.0,30.999573 40.0,30.999573 40.0,30.999573 C40.0,30.44696 40.44763,29.999634 40.999878,29.999634 C41.552124,29.999634 41.999878,30.44696 41.999878,30.999573 C41.999878,30.999573 41.999878,30.999573 41.999878,30.999573 C41.999878,33.20862 40.209106,34.99933 37.999878,34.99933 ZM40.0,5.999634 C40.0,4.8948975 39.104492,3.9997559 37.999878,3.9997559 C37.999878,3.9997559 8.999878,3.9997559 8.999878,3.9997559 C8.999878,3.9997559 8.999878,3.9997559 8.999878,3.9997559 C8.447632,3.9997559 7.999878,3.551941 7.999878,2.9993286 C7.999878,2.4472046 8.447632,1.9993896 8.999878,1.9993896 C8.999878,1.9993896 8.999878,1.9993896 8.999878,1.9993896 C8.999878,1.9993896 37.999878,1.9993896 37.999878,1.9993896 C40.209106,1.9993896 41.999878,3.7901 41.999878,5.999634 C41.999878,5.999634 41.999878,14.999084 41.999878,14.999084 C41.999878,14.999084 40.0,14.999084 40.0,14.999084 C40.0,14.999084 40.0,5.999634 40.0,5.999634 ZM8.999878,7.9995117 C8.999878,7.9995117 35.0,7.9995117 35.0,7.9995117 C35.552246,7.9995117 36.0,8.447327 36.0,8.999451 C36.0,9.551575 35.552246,9.99939 35.0,9.99939 C35.0,9.99939 8.999878,9.99939 8.999878,9.99939 C8.447632,9.99939 7.999878,9.551575 7.999878,8.999451 C7.999878,8.447327 8.447632,7.9995117 8.999878,7.9995117 Z"/>
</svg>