<svg xmlns="http://www.w3.org/2000/svg"
 xmlns:xlink="http://www.w3.org/1999/xlink"
 width="43px" height="39px"  viewBox="0 0 43 39">
<path fill-rule="evenodd"  fill="#26e6e6"
 d="M8.999878,1.9993896 C9.552124,1.9993896 9.999878,2.4466553 9.999878,2.9993896 C9.999878,2.9993896 9.999878,36.999268 9.999878,36.999268 C9.999878,37.55188 9.552124,37.999146 8.999878,37.999146 C8.447632,37.999146 7.999878,37.55188 7.999878,36.999268 C7.999878,36.999268 7.999878,2.9993896 7.999878,2.9993896 C7.999878,2.4466553 8.447632,1.9993896 8.999878,1.9993896 ZM2.999939,1.9993896 C3.552246,1.9993896 3.999878,2.4466553 3.999878,2.9993896 C3.999878,2.9993896 3.999878,36.999268 3.999878,36.999268 C3.999878,37.55188 3.552246,37.999146 2.999939,37.999146 C2.4475708,37.999146 1.999939,37.55188 1.999939,36.999268 C1.999939,36.999268 1.999939,2.9993896 1.999939,2.9993896 C1.999939,2.4466553 2.4475708,1.9993896 2.999939,1.9993896 ZM40.999878,1.9993896 C41.552246,1.9993896 41.999878,2.4466553 41.999878,2.9993896 C41.999878,2.9993896 41.999878,36.999268 41.999878,36.999268 C41.999878,37.55188 41.552246,37.999146 40.999878,37.999146 C40.44763,37.999146 40.0,37.55188 40.0,36.999268 C40.0,36.999268 40.0,2.9993896 40.0,2.9993896 C40.0,2.4466553 40.44763,1.9993896 40.999878,1.9993896 ZM34.999878,1.9993896 C35.552246,1.9993896 36.0,2.4466553 36.0,2.9993896 C36.0,2.9993896 36.0,36.999268 36.0,36.999268 C36.0,37.55188 35.552246,37.999146 34.999878,37.999146 C34.44763,37.999146 33.999878,37.55188 33.999878,36.999268 C33.999878,36.999268 33.999878,2.9993896 33.999878,2.9993896 C33.999878,2.4466553 34.44763,1.9993896 34.999878,1.9993896 Z"/>
</svg>