<svg xmlns="http://www.w3.org/2000/svg"
 xmlns:xlink="http://www.w3.org/1999/xlink"
 width="63px" height="63px"  viewBox="0 0 63 63">
<path fill-rule="evenodd"  fill="#2f3238"
 d="M60.999878,61.999268 C60.44763,61.999268 59.999878,61.551514 59.999878,60.99939 C59.999878,60.99939 59.999878,17.999512 59.999878,17.999512 C59.999878,16.894775 59.104492,15.9991455 58.0,15.9991455 C58.0,15.9991455 5.999878,15.9991455 5.999878,15.9991455 C4.8953247,15.9991455 3.999939,16.894775 3.999939,17.999512 C3.999939,17.999512 3.999939,57.99951 3.999939,57.99951 C3.999939,59.10376 4.8953247,59.999878 5.999878,59.999878 C5.999878,59.999878 54.999878,59.999878 54.999878,59.999878 C55.552246,59.999878 55.999878,60.447266 55.999878,60.99939 C55.999878,61.551514 55.552246,61.999268 54.999878,61.999268 C54.999878,61.999268 5.999878,61.999268 5.999878,61.999268 C3.7907715,61.999268 1.9998779,60.208496 1.9998779,57.99951 C1.9998779,57.99951 1.9998779,17.999512 1.9998779,17.999512 C1.9998779,15.790039 3.7907715,13.999268 5.999878,13.999268 C5.999878,13.999268 58.0,13.999268 58.0,13.999268 C60.208984,13.999268 61.999878,15.790039 61.999878,17.999512 C61.999878,17.999512 61.999878,60.99939 61.999878,60.99939 C61.999878,61.551514 61.552246,61.999268 60.999878,61.999268 ZM39.999878,13.999268 C39.999878,13.999268 39.999878,5.9992676 39.999878,5.9992676 C39.999878,4.8945312 39.104492,3.9993896 38.0,3.9993896 C38.0,3.9993896 25.999878,3.9993896 25.999878,3.9993896 C24.895386,3.9993896 23.999878,4.8945312 23.999878,5.9992676 C23.999878,5.9992676 23.999878,8.999023 23.999878,8.999023 C23.999878,9.551758 23.552124,9.999512 22.999878,9.999512 C22.447632,9.999512 21.999878,9.551758 21.999878,8.999023 C21.999878,8.999023 21.999878,5.9992676 21.999878,5.9992676 C21.999878,3.7902832 23.790771,1.9995117 25.999878,1.9995117 C25.999878,1.9995117 38.0,1.9995117 38.0,1.9995117 C40.209106,1.9995117 42.0,3.7902832 42.0,5.9992676 C42.0,5.9992676 42.0,13.999268 42.0,13.999268 C40.89978,13.999268 40.453003,13.999268 39.999878,13.999268 Z"/>
</svg>