<svg xmlns="http://www.w3.org/2000/svg"
 xmlns:xlink="http://www.w3.org/1999/xlink"
 width="57px" height="57px"  viewBox="0 0 57 57">
<path fill-rule="evenodd"  fill="#26e6e6"
 d="M3.999878,13.999634 C5.104431,13.999634 5.999817,14.895142 5.999817,15.999023 C5.999817,17.10376 5.104431,17.998901 3.999878,17.998901 C2.8953247,17.998901 1.9998169,17.10376 1.9998169,15.999023 C1.9998169,14.895142 2.8953247,13.999634 3.999878,13.999634 ZM11.999878,13.999634 C13.10437,13.999634 13.999878,14.895142 13.999878,15.999023 C13.999878,17.10376 13.10437,17.998901 11.999878,17.998901 C10.895325,17.998901 9.999939,17.10376 9.999939,15.999023 C9.999939,14.895142 10.895325,13.999634 11.999878,13.999634 ZM19.999878,13.999634 C21.10437,13.999634 21.999878,14.895142 21.999878,15.999023 C21.999878,17.10376 21.10437,17.998901 19.999878,17.998901 C18.895386,17.998901 17.999878,17.10376 17.999878,15.999023 C17.999878,14.895142 18.895386,13.999634 19.999878,13.999634 ZM54.999878,55.99951 C54.44763,55.99951 53.999756,55.551147 53.999756,54.99951 C53.999756,54.99951 53.999756,5.999634 53.999756,5.999634 C53.999756,4.8947754 53.10437,3.9992676 51.999878,3.9992676 C51.999878,3.9992676 3.999878,3.9992676 3.999878,3.9992676 C3.999878,3.9992676 3.999878,3.9992676 3.999878,3.9992676 C3.999878,3.9992676 2.999878,3.9992676 2.999878,3.9992676 C2.4475708,3.9992676 1.9998169,3.55188 1.9998169,2.9992676 C1.9998169,2.4471436 2.4475708,1.9993896 2.999878,1.9993896 C2.999878,1.9993896 12.999878,1.9993896 12.999878,1.9993896 C12.999878,1.9993896 12.999878,1.9993896 13.0,1.9993896 C13.0,1.9993896 51.999878,1.9993896 51.999878,1.9993896 C54.208984,1.9993896 55.999878,3.790039 55.999878,5.999634 C55.999878,5.999634 55.999878,54.99951 55.999878,54.99951 C55.999878,55.551147 55.552124,55.99951 54.999878,55.99951 Z"/>
</svg>