<svg xmlns="http://www.w3.org/2000/svg"
 xmlns:xlink="http://www.w3.org/1999/xlink"
 width="57px" height="57px"  viewBox="0 0 57 57">
<path fill-rule="evenodd"  fill="#2f3238"
 d="M51.999756,55.999146 C51.999756,55.999146 5.999878,55.999146 5.999878,55.999146 C3.7907104,55.999146 1.9998779,54.208374 1.9998779,51.99939 C1.9998779,51.99939 1.9998779,5.9992676 1.9998779,5.9992676 C1.9998779,3.7901611 3.7907104,1.9995117 5.999878,1.9995117 C5.999878,1.9995117 48.999878,1.9995117 48.999878,1.9995117 C49.552124,1.9995117 49.999878,2.4467773 49.999878,2.9993896 C49.999878,3.5515137 49.552124,3.9993896 48.999878,3.9993896 C48.999878,3.9993896 5.999878,3.9993896 5.999878,3.9993896 C4.8953247,3.9993896 3.999878,4.894409 3.999878,5.9992676 C3.999878,5.9992676 3.999878,51.99939 3.999878,51.99939 C3.999878,53.103638 4.8953247,53.999268 5.999878,53.999268 C5.999878,53.999268 51.999756,53.999268 51.999756,53.999268 C53.104492,53.999268 53.999878,53.103638 53.999878,51.99939 C53.999878,51.99939 53.999878,2.9993896 53.999878,2.9993896 C53.999878,2.4467773 54.44763,1.9995117 54.999878,1.9995117 C55.552124,1.9995117 55.999756,2.4467773 55.999756,2.9993896 C55.999756,2.9993896 55.999756,51.99939 55.999756,51.99939 C55.999756,54.208374 54.208984,55.999146 51.999756,55.999146 ZM8.999878,15.9991455 C8.999878,15.9991455 54.999878,15.9991455 54.999878,15.9991455 C55.552124,15.9991455 55.999756,16.4469 55.999756,16.999512 C55.999756,17.551147 55.552124,17.999512 54.999878,17.999512 C54.999878,17.999512 8.999878,17.999512 8.999878,17.999512 C8.447571,17.999512 7.999817,17.551147 7.999817,16.999512 C7.999817,16.4469 8.447571,15.9991455 8.999878,15.9991455 Z"/>
</svg>