<svg xmlns="http://www.w3.org/2000/svg"
 xmlns:xlink="http://www.w3.org/1999/xlink"
 width="64px" height="63px"  viewBox="0 0 64 63">
<path fill-rule="evenodd"  fill="#2f3238"
 d="M60.79602,14.529541 C60.79602,14.529541 24.530396,50.795532 24.530396,50.795532 C23.931885,51.39441 23.19104,51.76062 22.41687,51.902344 C22.289185,51.961792 22.150024,51.999268 21.999878,51.999268 C21.999878,51.999268 12.999878,51.999268 12.999878,51.999268 C12.999878,51.999268 12.999878,51.999268 12.999878,51.999268 C12.861877,51.999268 12.730286,51.97119 12.610657,51.92102 C12.371399,51.81958 12.1796875,51.628174 12.078491,51.38855 C12.027893,51.26892 11.999939,51.137573 11.999939,50.999268 C11.999939,50.999268 11.999939,42.31482 11.999939,42.31482 C11.999634,42.289673 11.999634,42.26465 11.999939,42.238525 C11.999939,42.238525 11.999939,41.99939 11.999939,41.99939 C11.999939,41.922607 12.027222,41.854736 12.043518,41.782837 C12.149475,40.926147 12.514526,40.09497 13.172363,39.4375 C13.172363,39.4375 49.43799,3.1715088 49.43799,3.1715088 C51.006226,1.6036377 53.548706,1.6036377 55.116943,3.1715088 C55.116943,3.1715088 60.79602,8.85083 60.79602,8.85083 C62.364258,10.419067 62.364258,12.961304 60.79602,14.529541 ZM59.414185,10.244873 C59.414185,10.244873 53.72278,4.5533447 53.72278,4.5533447 C52.93701,3.7679443 51.66284,3.7679443 50.877075,4.5533447 C50.877075,4.5533447 13.999878,41.430542 13.999878,41.430542 C13.999878,41.430542 13.999878,41.99939 13.999878,41.99939 C13.999878,41.99939 13.999878,49.999878 13.999878,49.999878 C13.999878,49.999878 21.999878,49.999878 21.999878,49.999878 C21.999878,49.999878 22.505615,49.999878 22.505615,49.999878 C22.505615,49.999878 59.414185,13.091187 59.414185,13.091187 C60.200073,12.30481 60.200073,11.030762 59.414185,10.244873 ZM13.289307,40.28882 C13.697388,39.88037 14.358948,39.88037 14.767029,40.28882 C14.767029,40.28882 23.677856,49.19922 23.677856,49.19922 C24.085938,49.608154 24.085938,50.269043 23.677856,50.677002 C23.269775,51.08496 22.608276,51.08496 22.200195,50.677002 C22.200195,50.677002 13.289307,41.766113 13.289307,41.766113 C12.881226,41.358643 12.881226,40.696777 13.289307,40.28882 ZM43.289307,11.288574 C43.697388,10.880249 44.35901,10.880249 44.76709,11.288574 C44.76709,11.288574 48.677856,15.199341 48.677856,15.199341 C49.085938,15.607788 49.085938,16.269165 48.677856,16.677124 C48.269775,17.085083 47.608276,17.085083 47.200195,16.677124 C47.200195,16.677124 43.289307,12.766357 43.289307,12.766357 C42.881226,12.358398 42.881226,11.6970215 43.289307,11.288574 ZM2.999939,1.9993896 C3.552185,1.9993896 3.999939,2.4471436 3.999939,2.9992676 C3.999939,2.9992676 3.999939,60.999146 3.999939,60.999146 C3.999939,61.551758 3.552185,61.999146 2.999939,61.999146 C2.4476318,61.999146 1.9998779,61.551758 1.9998779,60.999146 C1.9998779,60.999146 1.9998779,2.9992676 1.9998779,2.9992676 C1.9998779,2.4471436 2.4476318,1.9993896 2.999939,1.9993896 ZM61.999878,60.999146 C61.999878,61.551758 61.552246,61.999146 60.999878,61.999146 C60.999878,61.999146 8.999878,61.999146 8.999878,61.999146 C8.447571,61.999146 7.999939,61.551758 7.999939,60.999146 C7.999939,60.44702 8.447571,59.999268 8.999878,59.999268 C8.999878,59.999268 60.999878,59.999268 60.999878,59.999268 C61.552246,59.999268 61.999878,60.44702 61.999878,60.999146 ZM2.999939,1.9993896 C2.999939,1.9993896 33.0,1.9993896 33.0,1.9993896 C33.552246,1.9993896 33.999878,2.4471436 33.999878,2.9992676 C33.999878,3.55188 33.552246,3.9992676 33.0,3.9992676 C33.0,3.9992676 2.999939,3.9992676 2.999939,3.9992676 C2.4476318,3.9992676 1.9998779,3.55188 1.9998779,2.9992676 C1.9998779,2.4471436 2.4476318,1.9993896 2.999939,1.9993896 ZM59.999878,60.999146 C59.999878,60.999146 59.999878,30.999023 59.999878,30.999023 C59.999878,30.4469 60.44763,29.999146 60.999878,29.999146 C61.552246,29.999146 61.999878,30.4469 61.999878,30.999023 C61.999878,30.999023 61.999878,60.999146 61.999878,60.999146 C61.999878,61.551758 61.552246,61.999146 60.999878,61.999146 C60.44763,61.999146 59.999878,61.551758 59.999878,60.999146 Z"/>
</svg>